<svg width="446" height="220" viewBox="0 0 446 220" fill="none" xmlns="http://www.w3.org/2000/svg">
<g clip-path="url(#clip0_112_2)">
<path fill-rule="evenodd" clip-rule="evenodd" d="M112.65 169V56.32H123.91V69.92L125 68.7C130.907 62.7918 138.433 58.7679 146.627 57.1373C154.821 55.5068 163.315 56.3427 171.034 59.5395C178.753 62.7363 185.35 68.1503 189.992 75.0968C194.634 82.0434 197.111 90.2104 197.111 98.565C197.111 106.92 194.634 115.087 189.992 122.033C185.35 128.98 178.753 134.394 171.034 137.591C163.315 140.787 154.821 141.623 146.627 139.993C138.433 138.362 130.907 134.338 125 128.43L123.88 127.21V169H112.65ZM64.77 140.8C57.8228 140.801 50.9827 139.089 44.8555 135.814C38.7283 132.54 33.5033 127.805 29.6434 122.029C25.7835 116.253 23.4079 109.614 22.727 102.7C22.0461 95.7862 23.081 88.8113 25.74 82.3931C28.3989 75.9749 32.5999 70.3116 37.9706 65.905C43.3413 61.4984 49.7161 58.4845 56.53 57.1303C63.3439 55.7761 70.3866 56.1235 77.0342 58.1416C83.6818 60.1597 89.729 63.7863 94.64 68.7L95.75 69.92V56.32H107V140.8H95.75V127.21L94.64 128.43C90.7219 132.358 86.0659 135.474 80.9398 137.597C75.8136 139.719 70.3184 140.808 64.77 140.8ZM202.77 140.8V45.0601V33.8H270.36V45.0601H214V69.92L215.11 68.7C221.017 62.7918 228.543 58.7679 236.737 57.1373C244.931 55.5068 253.425 56.3427 261.144 59.5395C268.863 62.7363 275.46 68.1503 280.102 75.0968C284.744 82.0434 287.221 90.2104 287.221 98.565C287.221 106.92 284.744 115.087 280.102 122.033C275.46 128.98 268.863 134.394 261.144 137.591C253.425 140.787 244.931 141.623 236.737 139.993C228.543 138.362 221.017 134.338 215.11 128.43L214 127.21V140.8H202.77ZM64.77 129.54C72.4368 129.536 79.8301 126.692 85.5222 121.555C91.2142 116.419 94.8011 109.356 95.59 101.73L95.75 98.58L95.59 95.43C94.9824 89.4627 92.6567 83.7997 88.8948 79.1278C85.1329 74.4559 80.0964 70.9757 74.396 69.1092C68.6956 67.2427 62.5761 67.07 56.7795 68.6121C50.9829 70.1542 45.7582 73.3448 41.7389 77.7972C37.7195 82.2495 35.0781 87.7723 34.135 93.6959C33.1919 99.6195 33.9876 105.69 36.4256 111.17C38.8635 116.65 42.8391 121.306 47.8701 124.572C52.9012 127.838 58.7718 129.574 64.77 129.57V129.54ZM154.89 129.57C160.887 129.573 166.756 127.837 171.786 124.572C176.816 121.307 180.791 116.653 183.229 111.175C185.668 105.696 186.464 99.6277 185.523 93.7052C184.582 87.7827 181.944 82.2603 177.927 77.8072C173.911 73.3542 168.689 70.1617 162.895 68.6166C157.1 67.0716 150.982 67.2403 145.282 69.1024C139.581 70.9645 134.543 74.4399 130.778 79.1076C127.014 83.7752 124.683 89.4347 124.07 95.4001L123.91 98.55L124.07 101.7C124.859 109.326 128.446 116.389 134.138 121.525C139.83 126.662 147.223 129.506 154.89 129.51V129.57ZM245 129.51C251 129.517 256.873 127.782 261.907 124.516C266.94 121.25 270.918 116.594 273.357 111.112C275.796 105.63 276.592 99.5581 275.648 93.6328C274.704 87.7075 272.06 82.1834 268.038 77.7308C264.017 73.2782 258.789 70.0885 252.99 68.5485C247.191 67.0085 241.07 67.1846 235.369 69.0552C229.668 70.9259 224.632 74.4108 220.873 79.0871C217.113 83.7635 214.792 89.4303 214.19 95.4001L214 98.5201V98.61L214.16 101.73C214.949 109.36 218.539 116.426 224.235 121.562C229.932 126.699 237.33 129.541 245 129.54" fill="#E63323"/>
<path fill-rule="evenodd" clip-rule="evenodd" d="M64.77 163.33C48.1671 163.328 32.1989 156.95 20.1629 145.514C8.12688 134.077 0.942272 118.456 0.092678 101.874C-0.756916 85.2932 4.79339 69.0189 15.5974 56.4122C26.4015 43.8054 41.6342 35.829 58.15 34.1301L64.74 33.8H197.13V45.0601H64.77C50.76 45.3309 37.4153 51.0866 27.6032 61.0903C17.791 71.094 12.2945 84.5475 12.2945 98.56C12.2945 112.573 17.791 126.026 27.6032 136.03C37.4153 146.034 50.76 151.789 64.77 152.06H107V163.32L64.77 163.33ZM129.54 163.33H445V152.07H129.54V163.33ZM405.54 98.56L404.45 87.7901C401.962 75.7189 395.384 64.8759 385.829 57.0912C376.274 49.3066 364.325 45.0571 352 45.0601H309.78V33.8H352.28L358.22 34.0801C373.122 35.5244 387.064 42.0827 397.679 52.6409C408.294 63.1991 414.926 77.1062 416.45 92L416.79 98.61L405.54 98.56Z" fill="#2E56A2"/>
<path fill-rule="evenodd" clip-rule="evenodd" d="M292.88 140.8V45.06H276V33.8H304.16V140.8H292.88ZM351.97 140.8C343.615 140.792 335.451 138.307 328.508 133.66C321.565 129.013 316.156 122.412 312.965 114.691C309.773 106.97 308.942 98.476 310.577 90.283C312.211 82.0899 316.238 74.5654 322.149 68.6606C328.059 62.7559 335.588 58.7359 343.782 57.1089C351.977 55.4819 360.47 56.321 368.188 59.5199C375.905 62.7189 382.502 68.1342 387.142 75.0813C391.783 82.0284 394.26 90.1955 394.26 98.55H383C383 92.4188 381.182 86.4253 377.776 81.3273C374.369 76.2294 369.528 72.2561 363.863 69.9097C358.199 67.5634 351.966 66.9495 345.952 68.1457C339.939 69.3418 334.415 72.2943 330.08 76.6297C325.744 80.9651 322.792 86.4888 321.596 92.5022C320.399 98.5156 321.013 104.749 323.36 110.413C325.706 116.078 329.679 120.919 334.777 124.326C339.875 127.732 345.869 129.55 352 129.55H445V140.8H351.97ZM290.06 28.16C287.275 28.16 284.553 27.3342 282.238 25.7871C279.922 24.24 278.117 22.041 277.052 19.4682C275.986 16.8954 275.707 14.0644 276.251 11.3331C276.794 8.60188 278.135 6.09307 280.104 4.12394C282.073 2.15482 284.582 0.813829 287.313 0.27055C290.044 -0.27273 292.875 0.00610065 295.448 1.07178C298.021 2.13746 300.22 3.94213 301.767 6.25758C303.314 8.57302 304.14 11.2952 304.14 14.08C304.137 17.8134 302.653 21.3932 300.013 24.0331C297.373 26.6731 293.793 28.1574 290.06 28.16ZM290.06 22.53C291.732 22.532 293.366 22.0381 294.757 21.1108C296.148 20.1835 297.233 18.8645 297.874 17.3206C298.515 15.7768 298.684 14.0774 298.359 12.4376C298.034 10.7978 297.23 9.29125 296.049 8.1085C294.867 6.92574 293.362 6.11997 291.722 5.79311C290.083 5.46625 288.383 5.63301 286.839 6.27227C285.294 6.91154 283.974 7.99459 283.045 9.3844C282.116 10.7742 281.62 12.4083 281.62 14.08C281.62 16.3194 282.509 18.4671 284.091 20.0515C285.674 21.6359 287.821 22.5274 290.06 22.53Z" fill="#2E56A2"/>
<path d="M2.21002 192.66H20.88V213.59H16.08V196.78H7.00002V213.59H2.21002V192.66Z" fill="#294E97"/>
<path d="M26.9 192.66H31.7V196.15C32.4543 194.948 33.5016 193.958 34.7435 193.273C35.9855 192.587 37.3813 192.228 38.8 192.23C43.8 192.23 48.55 196.15 48.55 203.17C48.55 210.19 43.79 214 38.8 214C37.4054 214.011 36.0293 213.68 34.7917 213.037C33.5542 212.394 32.4928 211.457 31.7 210.31V219.9H26.9V192.66ZM43.67 203.09C43.67 199.04 40.94 196.39 37.67 196.39C34.4 196.39 31.56 199.08 31.56 203.17C31.56 207.26 34.42 209.87 37.67 209.87C40.92 209.87 43.67 207.29 43.67 203.09Z" fill="#294E97"/>
<path d="M53.46 192.66H58.14V206.66C61.43 201.99 64.72 197.31 68.05 192.66H72.57V213.59H67.93V199.59L57.93 213.59H53.46V192.66Z" fill="#294E97"/>
<path d="M78.59 192.66H83.35V202.66L92.47 192.66H98.1L90 201.46L98.8 213.59H93.1L86.76 205L83.35 208.61V213.61H78.59V192.66Z" fill="#294E97"/>
<path d="M99.13 213.55L99.48 209.63C99.938 209.723 100.403 209.776 100.87 209.79C103.29 209.79 104.96 208.6 104.96 192.66H120.77V213.59H116V196.78H109.45C109.45 211.97 106.6 213.83 101.96 213.83C101.012 213.799 100.066 213.705 99.13 213.55Z" fill="#294E97"/>
<path d="M139.6 213.59V211C138.772 211.982 137.731 212.762 136.556 213.282C135.381 213.802 134.104 214.047 132.82 214C128.82 214 125.37 211.74 125.37 207.46C125.37 202.82 128.98 200.6 133.85 200.6C135.815 200.567 137.771 200.861 139.64 201.47V201.07C139.64 198.18 137.82 196.6 134.49 196.6C132.421 196.604 130.375 197.047 128.49 197.9L127.18 194.06C129.677 192.87 132.414 192.271 135.18 192.31C141.37 192.31 144.38 195.57 144.38 201.15V213.56L139.6 213.59ZM139.72 204.83C138.182 204.271 136.556 203.99 134.92 204C131.92 204 130.13 205.23 130.13 207.33C130.13 209.43 131.91 210.42 134.13 210.42C137.3 210.42 139.68 208.64 139.68 206.02L139.72 204.83Z" fill="#294E97"/>
<path d="M147.65 209.47H149.91C151.65 205.98 152.25 201.1 152.25 195.24V192.66H168.46V209.47H171.46L170.83 218.63H166.83V213.63H152.13L151.65 218.63H147.65V209.47ZM163.65 209.47V196.78H156.75V199.56C156.822 202.964 156.16 206.344 154.81 209.47H163.65Z" fill="#294E97"/>
<path d="M175.43 192.66H180.23V201.14H189.47V192.66H194.26V213.59H189.47V205.15H180.23V213.59H175.43V192.66Z" fill="#294E97"/>
<path d="M200.29 192.66H205.09V200H209.49C214.2 200 217.81 202.07 217.81 206.63C217.81 210.95 214.76 213.63 209.81 213.63H200.26L200.29 192.66ZM209.21 209.71C211.63 209.71 213.01 208.64 213.01 206.62C213.01 204.6 211.59 203.72 209.13 203.72H205.13V209.72L209.21 209.71ZM221 192.66H225.8V213.59H221V192.66Z" fill="#294E97"/>
<path d="M230.65 203.13C230.65 197.13 234.89 192.23 240.88 192.23C247.54 192.23 250.88 197.46 250.88 203.48C250.88 203.8 250.88 204.59 250.8 204.83H235.45C235.584 206.313 236.281 207.689 237.396 208.676C238.511 209.663 239.961 210.187 241.45 210.14C242.515 210.145 243.57 209.926 244.545 209.497C245.52 209.068 246.394 208.439 247.11 207.65L249.93 210.14C248.903 211.411 247.596 212.427 246.111 213.109C244.626 213.791 243.003 214.12 241.37 214.07C235.33 214.07 230.65 209.67 230.65 203.13ZM246.15 201.66C245.84 198.57 244.01 196.15 240.84 196.15C237.91 196.15 235.84 198.41 235.41 201.66H246.15Z" fill="#294E97"/>
<path d="M267.64 192.66H272.43V196.15C273.184 194.948 274.232 193.958 275.474 193.273C276.715 192.587 278.111 192.228 279.53 192.23C284.53 192.23 289.28 196.15 289.28 203.17C289.28 210.19 284.53 214 279.53 214C278.135 214.011 276.759 213.68 275.522 213.037C274.284 212.394 273.223 211.457 272.43 210.31V219.9H267.64V192.66ZM284.41 203.09C284.41 199.04 281.67 196.39 278.41 196.39C275.15 196.39 272.31 199.08 272.31 203.17C272.31 207.26 275.16 209.87 278.41 209.87C281.66 209.87 284.41 207.29 284.41 203.09Z" fill="#294E97"/>
<path d="M293.05 203.13C293.05 197.13 297.29 192.23 303.27 192.23C309.93 192.23 313.27 197.46 313.27 203.48C313.27 203.8 313.27 204.59 313.19 204.83H297.84C297.977 206.312 298.673 207.687 299.788 208.673C300.903 209.66 302.352 210.184 303.84 210.14C304.907 210.145 305.963 209.926 306.939 209.497C307.916 209.068 308.792 208.439 309.51 207.65L312.32 210.14C311.293 211.411 309.986 212.427 308.501 213.109C307.016 213.791 305.393 214.12 303.76 214.07C297.72 214.07 293.05 209.67 293.05 203.13ZM308.55 201.66C308.23 198.57 306.41 196.15 303.23 196.15C300.3 196.15 298.23 198.41 297.8 201.66H308.55Z" fill="#294E97"/>
<path d="M318.14 192.66H322.94V209.47H330.66V192.66H335.42V209.47H343.15V192.66H348V213.59H318.14V192.66Z" fill="#294E97"/>
<path d="M352.82 203.13C352.82 197.13 357.07 192.23 363.05 192.23C369.71 192.23 373.05 197.46 373.05 203.48C373.05 203.8 373.05 204.59 372.97 204.83H357.62C357.754 206.313 358.45 207.689 359.566 208.676C360.681 209.663 362.131 210.187 363.62 210.14C364.685 210.145 365.74 209.926 366.715 209.497C367.69 209.068 368.564 208.439 369.28 207.65L372.1 210.14C371.073 211.411 369.766 212.427 368.281 213.109C366.796 213.791 365.173 214.12 363.54 214.07C357.5 214.07 352.82 209.67 352.82 203.13ZM368.32 201.66C368.01 198.57 366.18 196.15 363.01 196.15C360.08 196.15 358.01 198.41 357.58 201.66H368.32Z" fill="#294E97"/>
<path d="M377.92 192.66H382.71V201.14H392V192.66H396.8V213.59H392V205.15H382.76V213.59H377.97L377.92 192.66Z" fill="#294E97"/>
<path d="M402.77 192.66H407.45V206.66C410.74 201.99 414.03 197.31 417.36 192.66H421.88V213.59H417.24V199.59L407.29 213.59H402.77V192.66Z" fill="#294E97"/>
<path d="M431.79 205.74C430.383 205.413 429.131 204.613 428.242 203.473C427.354 202.334 426.884 200.924 426.91 199.48C426.91 195.48 429.91 192.66 435.16 192.66H445.66V213.59H440.86V206.54H436.58L431.63 213.59H426L431.79 205.74ZM440.86 202.93V196.55H435.79C433.25 196.55 431.71 197.74 431.71 199.72C431.71 201.7 433.37 202.93 435.83 202.93H440.86Z" fill="#294E97"/>
</g>
<defs>
<clipPath id="clip0_112_2">
<rect width="445.66" height="219.93" fill="white"/>
</clipPath>
</defs>
</svg>
